<?xml version="1.0" encoding="UTF-8" standalone="no"?>
<!-- Created with Inkscape (http://www.inkscape.org/) -->

<svg
   width="204"
   height="22"
   viewBox="0 0 53.975016 5.820837"
   version="1.1"
   id="svg1"
   inkscape:version="1.4 (86a8ad7, 2024-10-11)"
   sodipodi:docname="logo_alt.svg"
   xmlns:inkscape="http://www.inkscape.org/namespaces/inkscape"
   xmlns:sodipodi="http://sodipodi.sourceforge.net/DTD/sodipodi-0.dtd"
   xmlns="http://www.w3.org/2000/svg"
   xmlns:svg="http://www.w3.org/2000/svg">
  <sodipodi:namedview
     id="namedview1"
     pagecolor="#505050"
     bordercolor="#ffffff"
     borderopacity="1"
     inkscape:showpageshadow="0"
     inkscape:pageopacity="0"
     inkscape:pagecheckerboard="1"
     inkscape:deskcolor="#505050"
     inkscape:document-units="mm"
     inkscape:zoom="3.1821268"
     inkscape:cx="127.4305"
     inkscape:cy="63.95094"
     inkscape:window-width="1920"
     inkscape:window-height="1137"
     inkscape:window-x="1912"
     inkscape:window-y="-8"
     inkscape:window-maximized="1"
     inkscape:current-layer="layer1" />
  <defs
     id="defs1">
    <rect
       x="93.019547"
       y="103.07572"
       width="41.481689"
       height="82.963379"
       id="rect8" />
  </defs>
  <g
     inkscape:label="Layer 1"
     inkscape:groupmode="layer"
     id="layer1">
    <g
       id="text1"
       style="font-size:8.46667px;stroke-width:0.264583"
       aria-label="COUNTME++N">
      <path
         style="font-weight:bold;font-family:Dialog;-inkscape-font-specification:'Dialog Bold';fill:#ffffff"
         d="m 4.7767191,5.3760974 q -0.7196669,0.3302001 -1.9304007,0.3302001 -1.1853338,0 -1.97273414,-0.8297336 -0.78740031,-0.8297337 -0.78740031,-2.0235342 0,-1.2192004 0.77893364,-2.0235341 0.78740031,-0.81280032 1.99813411,-0.81280032 0.9313337,0 1.7102674,0.43180017 V 1.2866958 q -0.719667,-0.32173348 -1.642534,-0.32173348 -1.4986006,0 -1.4986006,1.88806738 0,0.8805337 0.3810001,1.3885339 0.4318002,0.5588002 1.2869339,0.5588002 0.6096002,0 1.6764006,-0.2878667 z"
         id="path13" />
      <path
         style="font-weight:bold;font-family:Dialog;-inkscape-font-specification:'Dialog Bold';letter-spacing:0px;fill:#ffffff"
         d="m 10.652587,2.8699631 q 0,1.2530671 -0.7620001,2.0489341 -0.7535337,0.7874003 -1.9981342,0.7874003 -1.2530671,0 -2.0150674,-0.7874003 -0.7535337,-0.795867 -0.7535337,-2.0489341 0,-1.1514671 0.8128004,-1.99813415 0.8128003,-0.85513367 1.9558007,-0.85513367 1.2446005,0 2.0150675,0.80433365 0.7450668,0.79586697 0.7450668,2.04893417 z m -1.3462004,0 q 0,-0.7874003 -0.3048001,-1.3038672 Q 8.629053,0.93956231 7.8924527,0.93956231 q -0.7281336,0 -1.1006671,0.63500029 -0.3132667,0.5164668 -0.3132667,1.2954005 0,0.7789336 0.3132667,1.2954005 0.3725335,0.6180669 1.1006671,0.6180669 0.7281337,0 1.1006672,-0.6180669 0.3132667,-0.5164669 0.3132667,-1.2954005 z m 6.6717284,0.5757335 q 0,2.2606009 -2.260601,2.2606009 -1.126067,0 -1.744134,-0.5503335 -0.6096,-0.5503336 -0.6096,-1.7102674 V 0.152162 h 1.320801 V 3.38643 q 0,0.7112002 0.186266,1.0329337 0.254001,0.4233335 0.914401,0.4233335 0.6858,0 0.9144,-0.4656669 0.143934,-0.3048001 0.143934,-1.075267 V 0.152162 h 1.134533 z M 21.66771,5.5708308 H 20.380777 L 18.111709,1.9132294 V 5.5708308 H 17.036442 V 0.152162 h 1.303867 l 2.252134,3.6660681 V 0.152162 H 21.66771 Z M 27.120246,1.049629 H 25.342245 V 5.5708308 H 24.012978 V 1.049629 H 22.234977 V 0.152162 h 4.885269 z"
         id="path14" />
      <path
         style="font-weight:bold;font-family:Dialog;-inkscape-font-specification:'Dialog Bold';fill:#ffffff"
         d="M 33.563379,5.5708308 H 32.488112 V 1.024229 L 30.997978,5.1898307 H 30.066644 L 28.762777,1.5322292 V 5.5708308 H 27.68751 V 0.152162 h 1.718734 l 1.261533,3.5052014 1.286934,-3.5052014 h 1.608668 z"
         id="path15" />
      <path
         style="font-weight:bold;font-family:Dialog;-inkscape-font-specification:'Dialog Bold';fill:#ffffff"
         d="M 38.550255,5.5708308 H 34.67252 V 0.152162 h 3.793068 v 0.897467 h -2.463801 v 1.3377339 h 2.243668 v 0.846667 h -2.243668 v 1.4478006 h 2.548468 z"
         id="path16" />
      <path
         style="font-weight:bold;font-family:Dialog;-inkscape-font-specification:'Dialog Bold';fill:#007c92"
         d="M 43.477854,3.3610299 H 41.513587 V 5.3337641 H 41.04792 V 3.3610299 H 39.092119 V 2.8953631 H 41.04792 V 0.92262897 h 0.4572 V 2.8953631 h 1.972734 z m 4.893727,0 H 46.407313 V 5.3337641 H 45.941646 V 3.3610299 H 43.985845 V 2.8953631 h 1.955801 V 0.92262897 h 0.4572 V 2.8953631 h 1.972735 z m 5.42713,2.2098009 H 52.511777 L 50.242709,1.9132294 V 5.5708308 H 49.167442 V 0.152162 h 1.303868 l 2.252134,3.6660681 V 0.152162 h 1.075267 z"
         id="path17" />
    </g>
  </g>
</svg>
